<?xml version="1.0" encoding="utf-8"?>
<!-- Generator: Adobe Illustrator 20.1.0, SVG Export Plug-In . SVG Version: 6.00 Build 0)  -->
<svg version="1.1" id="Layer_1" xmlns="http://www.w3.org/2000/svg" xmlns:xlink="http://www.w3.org/1999/xlink" x="0px" y="0px"
	 viewBox="0 0 512 512" style="enable-background:new 0 0 512 512;" xml:space="preserve">
<style type="text/css">
	.st0{fill:#FFFFFF;}
</style>
<path class="st0" d="M251.8,456.1c-8.2,0-14.8,6.6-14.8,14.8s6.6,14.8,14.8,14.8s14.8-6.6,14.8-14.8S260,456.1,251.8,456.1z
	 M251.8,471.8c-0.5,0-0.9-0.4-0.9-0.9s0.4-0.9,0.9-0.9s0.9,0.4,0.9,0.9S252.3,471.8,251.8,471.8z"/>
<path class="st0" d="M363.7,0h-14.8c-4.1,0-7.5,3.4-7.5,7.5s3.4,7.5,7.5,7.5h14.8c18.1,0,32.9,14.8,32.9,32.9v16.2H107V47.9
	c0-18.1,14.8-32.9,32.9-32.9h179.2c4.1,0,7.5-3.4,7.5-7.5S323.2,0,319.1,0H139.9C113.5,0,92,21.5,92,47.9v416.2
	c0,26.4,21.5,47.9,47.9,47.9h223.8c26.4,0,47.9-21.5,47.9-47.9V47.9C411.6,21.5,390.1,0,363.7,0z M363.7,497H139.9
	c-18.1,0-32.9-14.8-32.9-32.9v-385h289.6v351.1h-267c-4.1,0-7.5,3.4-7.5,7.5s3.4,7.5,7.5,7.5h267v18.9
	C396.6,482.2,381.9,497,363.7,497z"/>
<path class="st0" d="M200.1,289.9c1.5,1.5,3.4,2.2,5.3,2.2c1.9,0,3.8-0.7,5.3-2.2c2.9-2.9,2.9-7.7,0-10.6l-32.2-32.2l32.2-32.2
	c2.9-2.9,2.9-7.7,0-10.6c-2.9-2.9-7.7-2.9-10.6,0l-37.5,37.5c-1.4,1.4-2.2,3.3-2.2,5.3s0.8,3.9,2.2,5.3L200.1,289.9z"/>
<path class="st0" d="M292.9,289.9c1.5,1.5,3.4,2.2,5.3,2.2c1.9,0,3.8-0.7,5.3-2.2l37.5-37.5c2.9-2.9,2.9-7.7,0-10.6l-37.5-37.5
	c-2.9-2.9-7.7-2.9-10.6,0s-2.9,7.7,0,10.6l32.2,32.2l-32.2,32.2C289.9,282.2,289.9,287,292.9,289.9z"/>
<path class="st0" d="M235.4,322c0.5,0.1,1,0.1,1.5,0.1c3.5,0,6.6-2.5,7.4-6.1l26.4-135c0.8-4.1-1.9-8-5.9-8.8
	c-4.1-0.8-8,1.9-8.8,5.9l-26.5,135.1C228.6,317.2,231.3,321.2,235.4,322z"/>
</svg>
